<svg xmlns="http://www.w3.org/2000/svg" width="16" height="16" viewBox="0 0 16 16">
    <path fill="#00FFA7" fill-rule="evenodd" d="M11.035 3c1.083 0 1.932.296 2.545.889s.92 1.41.92 2.454c0 .71-.255 1.438-.765 2.18-.255.38-.55.728-.884 1.044l-4.469 4.29A.574.574 0 0 1 8 14a.574.574 0 0 1-.382-.142l-4.47-4.291a5.392 5.392 0 0 1-.836-.972C1.772 7.82 1.5 7.07 1.5 6.343c0-1.043.307-1.861.92-2.454C3.033 3.296 3.882 3 4.965 3c.558 0 1.147.19 1.768.569.43.253.853.577 1.267.972.414-.395.836-.72 1.267-.972.62-.38 1.21-.569 1.768-.569z"/>
</svg>
